<svg width="100" height="100" viewBox="0 0 100 100" fill="none" xmlns="http://www.w3.org/2000/svg">
<path fill-rule="evenodd" clip-rule="evenodd" d="M67.6621 72.9781L67.6621 76.4391C67.6621 79.2682 65.9579 81.8208 63.3424 82.9033C60.7298 83.9858 57.7208 83.3875 55.7196 81.3864L28.9471 54.6139C27.635 53.3017 26.8963 51.5215 26.8963 49.6666C26.8963 47.8118 27.635 46.0315 28.9471 44.7194L55.7196 17.9469C57.7208 15.9457 60.7298 15.3475 63.3424 16.43C65.9579 17.5124 67.6621 20.065 67.6621 22.8941L67.6621 26.3551C67.6621 28.21 66.9263 29.9903 65.6141 31.3024L48.8985 48.018C47.9872 48.9294 47.9872 50.4039 48.8985 51.3152L65.6141 68.0308C66.9263 69.343 67.6621 71.1232 67.6621 72.9781Z" fill="white"/>
</svg>
